<?xml version="1.0" encoding="UTF-8"?>
<svg version="1.1" xmlns="http://www.w3.org/2000/svg" width="272" height="177">
<path d="M0 0 C89.76 0 179.52 0 272 0 C272 58.41 272 116.82 272 177 C182.24 177 92.48 177 0 177 C0 118.59 0 60.18 0 0 Z " fill="#FEFEFD" transform="translate(0,0)"/>
<path d="M0 0 C10.08705883 8.68953765 17.85031283 20.34301906 19.91015625 33.703125 C20.96789482 50.34950255 17.74061966 64.96279274 7.22265625 78.390625 C-1.13812627 87.4463297 -13.57622444 95.15407485 -26.1328125 95.80981445 C-28.55696843 95.87383625 -30.97737157 95.88873786 -33.40234375 95.890625 C-34.21896484 95.90287109 -35.03558594 95.91511719 -35.87695312 95.92773438 C-43.93660366 95.94700047 -50.3726684 94.35073939 -57.58984375 90.578125 C-58.63140625 90.03929688 -59.67296875 89.50046875 -60.74609375 88.9453125 C-61.51953125 88.53539063 -62.29296875 88.12546875 -63.08984375 87.703125 C-63.08984375 83.703125 -63.08984375 83.703125 -61.76953125 81.88671875 C-61.17398438 81.31050781 -60.5784375 80.73429687 -59.96484375 80.140625 C-59.38476562 79.56183594 -58.8046875 78.98304687 -58.20703125 78.38671875 C-53.16312396 74.37578878 -48.75478206 73.35725857 -42.40234375 72.890625 C-29.67662281 71.59764511 -19.90985248 64.93136512 -11.77978516 55.12255859 C-1.34141024 42.10534692 -1.34141024 42.10534692 2.91015625 26.703125 C-0.57026377 27.28337396 -2.17136052 28.43278662 -4.6015625 30.95361328 C-5.60280151 31.97939987 -5.60280151 31.97939987 -6.62426758 33.02590942 C-7.33478271 33.76759369 -8.04529785 34.50927795 -8.77734375 35.2734375 C-10.29531913 36.82446717 -11.81355623 38.37524073 -13.33203125 39.92578125 C-15.7196851 42.38192125 -18.10315376 44.84192144 -20.48144531 47.30712891 C-22.7777225 49.68159135 -25.08895574 52.04066062 -27.40234375 54.3984375 C-28.11285889 55.14417023 -28.82337402 55.88990295 -29.55541992 56.65823364 C-30.2229126 57.33578705 -30.89040527 58.01334045 -31.578125 58.71142578 C-32.16118408 59.31463654 -32.74424316 59.91784729 -33.3449707 60.53933716 C-35.08984375 61.703125 -35.08984375 61.703125 -37.30932617 61.3901062 C-37.89689697 61.1634024 -38.48446777 60.93669861 -39.08984375 60.703125 C-37.65233141 57.4209807 -35.87415026 55.23030109 -33.3515625 52.69921875 C-32.24458008 51.58836914 -32.24458008 51.58836914 -31.11523438 50.45507812 C-30.34373047 49.69130859 -29.57222656 48.92753906 -28.77734375 48.140625 C-28.01744141 47.37298828 -27.25753906 46.60535156 -26.47460938 45.81445312 C-25.73275391 45.07517578 -24.99089844 44.33589844 -24.2265625 43.57421875 C-23.55326904 42.90318115 -22.87997559 42.23214355 -22.1862793 41.54077148 C-19.95695789 39.58664289 -17.65520585 38.1778511 -15.08984375 36.703125 C-10.02560447 32.62824383 -10.02560447 32.62824383 -7.52734375 26.890625 C-7.94105673 24.51275914 -7.94105673 24.51275914 -10.08984375 22.703125 C-13.70738478 22.32233121 -15.97385587 22.85661366 -19.08984375 24.703125 C-17.69830631 20.27550586 -15.56912889 17.7474995 -12.08984375 14.703125 C-11.42984375 14.703125 -10.76984375 14.703125 -10.08984375 14.703125 C-11.07984375 13.218125 -11.07984375 13.218125 -12.08984375 11.703125 C-15.11480956 13.05374787 -17.17041315 14.55341737 -19.47265625 16.92578125 C-20.08238281 17.54646484 -20.69210938 18.16714844 -21.3203125 18.80664062 C-21.94550781 19.45310547 -22.57070312 20.09957031 -23.21484375 20.765625 C-24.46520449 22.0503643 -25.71770891 23.33302181 -26.97265625 24.61328125 C-27.79854248 25.46611694 -27.79854248 25.46611694 -28.64111328 26.33618164 C-31.6131994 29.14048062 -34.1499349 28.78877519 -38.08984375 28.703125 C-37.49171875 27.98125 -36.89359375 27.259375 -36.27734375 26.515625 C-34.1090343 23.88168987 -34.1090343 23.88168987 -32.83984375 21.421875 C-30.5976307 17.93843686 -27.8657201 15.26325014 -24.90234375 12.390625 C-24.06413086 11.56594727 -24.06413086 11.56594727 -23.20898438 10.72460938 C-21.84046963 9.37948804 -20.46577542 8.04065857 -19.08984375 6.703125 C-19.58484375 5.218125 -19.58484375 5.218125 -20.08984375 3.703125 C-31.33008898 7.07519857 -41.37177447 13.9874818 -50.08984375 21.703125 C-50.80914062 22.31671875 -51.5284375 22.9303125 -52.26953125 23.5625 C-61.270221 31.78199781 -64.622889 41.3581733 -65.5703125 53.2578125 C-66.41171939 58.83766875 -68.61125217 62.64638898 -72.71484375 66.453125 C-75.26480943 68.80545184 -75.26480943 68.80545184 -77.08984375 71.703125 C-77.74984375 71.703125 -78.40984375 71.703125 -79.08984375 71.703125 C-86.89510469 57.48089064 -89.94244896 42.63395811 -85.46484375 26.765625 C-80.31289907 12.33299948 -70.75632761 0.77134774 -57.08984375 -6.296875 C-37.66434033 -14.78098302 -17.06466099 -12.68523471 0 0 Z " fill="#D75E28" transform="translate(171.08984375,28.296875)"/>
<path d="M0 0 C1.32 0.66 2.64 1.32 4 2 C4 2.66 4 3.32 4 4 C2.25425612 5.59878075 0.40118663 7.01415879 -1.46875 8.46484375 C-3.35310272 9.99262375 -3.35310272 9.99262375 -3 13 C-2.34 12.34 -1.68 11.68 -1 11 C1.84602594 10.63512488 3.3864306 10.59800625 5.8125 12.1875 C7.4588479 14.70034679 7.40337936 16.02615003 7 19 C4.98828125 21.5703125 4.98828125 21.5703125 2.3125 24.125 C1.44238281 24.97320312 0.57226562 25.82140625 -0.32421875 26.6953125 C-3 29 -3 29 -5.41796875 30.40698242 C-7.99175771 31.99491481 -9.87288315 33.64317393 -11.98828125 35.79296875 C-12.69404297 36.50517578 -13.39980469 37.21738281 -14.12695312 37.95117188 C-14.84818359 38.68916016 -15.56941406 39.42714844 -16.3125 40.1875 C-17.05306641 40.93708984 -17.79363281 41.68667969 -18.55664062 42.45898438 C-20.37571712 44.30153282 -22.18994389 46.14859662 -24 48 C-24 45 -24 45 -22.62304688 43.2824707 C-21.68041992 42.36340942 -21.68041992 42.36340942 -20.71875 41.42578125 C-19.70361328 40.42514648 -19.70361328 40.42514648 -18.66796875 39.40429688 C-17.95253906 38.71400391 -17.23710937 38.02371094 -16.5 37.3125 C-15.78457031 36.61060547 -15.06914062 35.90871094 -14.33203125 35.18554688 C-12.56120423 33.45013639 -10.78376544 31.7220927 -9 30 C-9.99 29.01 -10.98 28.02 -12 27 C-12.46374023 27.4846875 -12.92748047 27.969375 -13.40527344 28.46875 C-15.50967459 30.65623346 -17.62949267 32.8281309 -19.75 35 C-20.47960937 35.763125 -21.20921875 36.52625 -21.9609375 37.3125 C-22.66992188 38.034375 -23.37890625 38.75625 -24.109375 39.5 C-24.75874023 40.1703125 -25.40810547 40.840625 -26.07714844 41.53125 C-28 43 -28 43 -32 43 C-32 40 -32 37 -32 34 C-32.99 34.66 -33.98 35.32 -35 36 C-37.6875 35.625 -37.6875 35.625 -40 35 C-39.51820956 30.45288289 -37.98577731 28.50933287 -34.74609375 25.35546875 C-33.89208984 24.51435547 -33.03808594 23.67324219 -32.15820312 22.80664062 C-31.26037109 21.94232422 -30.36253906 21.07800781 -29.4375 20.1875 C-28.53580078 19.30384766 -27.63410156 18.42019531 -26.70507812 17.50976562 C-24.47877434 15.33057938 -22.24367741 13.16127083 -20 11 C-20 14 -20 14 -21.5 15.6875 C-21.995 16.120625 -22.49 16.55375 -23 17 C-17.88603723 17.00672006 -15.53002416 15.95581028 -11.81640625 12.40234375 C-10.38281046 10.92910936 -8.96513988 9.44023678 -7.5625 7.9375 C-6.83095703 7.17888672 -6.09941406 6.42027344 -5.34570312 5.63867188 C-3.54944581 3.7719731 -1.7687129 1.89275498 0 0 Z " fill="#DC7141" transform="translate(157,39)"/>
<path d="M0 0 C0.66 0.66 1.32 1.32 2 2 C2.66 1.34 3.32 0.68 4 0 C6.84602594 -0.36487512 8.3864306 -0.40199375 10.8125 1.1875 C12.4588479 3.70034679 12.40337936 5.02615003 12 8 C9.98828125 10.5703125 9.98828125 10.5703125 7.3125 13.125 C6.44238281 13.97320312 5.57226562 14.82140625 4.67578125 15.6953125 C2 18 2 18 -0.41796875 19.40698242 C-2.99175771 20.99491481 -4.87288315 22.64317393 -6.98828125 24.79296875 C-8.04692383 25.8612793 -8.04692383 25.8612793 -9.12695312 26.95117188 C-9.84818359 27.68916016 -10.56941406 28.42714844 -11.3125 29.1875 C-12.05306641 29.93708984 -12.79363281 30.68667969 -13.55664062 31.45898438 C-15.37571712 33.30153282 -17.18994389 35.14859662 -19 37 C-19 34 -19 34 -17.62304688 32.2824707 C-16.99462891 31.66976318 -16.36621094 31.05705566 -15.71875 30.42578125 C-15.04199219 29.75869141 -14.36523438 29.09160156 -13.66796875 28.40429688 C-12.95253906 27.71400391 -12.23710937 27.02371094 -11.5 26.3125 C-10.78457031 25.61060547 -10.06914062 24.90871094 -9.33203125 24.18554688 C-7.56120423 22.45013639 -5.78376544 20.7220927 -4 19 C-4.99 18.01 -5.98 17.02 -7 16 C-7.46374023 16.4846875 -7.92748047 16.969375 -8.40527344 17.46875 C-10.50967459 19.65623346 -12.62949267 21.8281309 -14.75 24 C-15.47960937 24.763125 -16.20921875 25.52625 -16.9609375 26.3125 C-17.66992188 27.034375 -18.37890625 27.75625 -19.109375 28.5 C-19.75874023 29.1703125 -20.40810547 29.840625 -21.07714844 30.53125 C-23 32 -23 32 -27 32 C-27.08886184 28.80097361 -26.91058531 26.07322544 -26 23 C-25.175 23.309375 -24.35 23.61875 -23.5 23.9375 C-18.73253011 24.02263339 -16.99473972 22.18736088 -13.640625 18.98046875 C-11.45940295 16.34742213 -10.92264546 14.40359977 -11 11 C-11.33 10.01 -11.66 9.02 -12 8 C-10.68 8 -9.36 8 -8 8 C-5.77658619 6.26084364 -5.77658619 6.26084364 -3.75 4 C-3.04359375 3.2575 -2.3371875 2.515 -1.609375 1.75 C-1.07828125 1.1725 -0.5471875 0.595 0 0 Z " fill="#D96532" transform="translate(152,50)"/>
<path d="M0 0 C1.32 0 2.64 0 4 0 C5.33912585 3.12254943 6.67030658 6.24842358 8 9.375 C8.3815625 10.26445312 8.763125 11.15390625 9.15625 12.0703125 C9.5171875 12.92109375 9.878125 13.771875 10.25 14.6484375 C10.58515625 15.43395996 10.9203125 16.21948242 11.265625 17.02880859 C12 19 12 19 12 21 C10.35 21 8.7 21 7 21 C6.67 20.01 6.34 19.02 6 18 C3.03 17.67 0.06 17.34 -3 17 C-3.33 18.32 -3.66 19.64 -4 21 C-5.65 21 -7.3 21 -9 21 C-8.06867993 18.43510233 -7.13021493 15.87320794 -6.1875 13.3125 C-5.92646484 12.59126953 -5.66542969 11.87003906 -5.39648438 11.12695312 C-2.42778597 3.10047226 -2.42778597 3.10047226 0 0 Z " fill="#D96532" transform="translate(132,141)"/>
<path d="M0 0 C2.26171875 -0.0234375 2.26171875 -0.0234375 5 1 C6.71491432 3.61193437 7.73160615 6.45443914 8.8125 9.375 C9.12380859 10.15617188 9.43511719 10.93734375 9.75585938 11.7421875 C12 17.50297047 12 17.50297047 12 21 C10.35 20.67 8.7 20.34 7 20 C7 19.01 7 18.02 7 17 C3.7 17 0.4 17 -3 17 C-3.33 18.32 -3.66 19.64 -4 21 C-5.32 21 -6.64 21 -8 21 C-5.72564796 13.81783567 -2.96415819 6.9241798 0 0 Z " fill="#D96431" transform="translate(66,141)"/>
<path d="M0 0 C4.62 0 9.24 0 14 0 C14 1.32 14 2.64 14 4 C11.03 4 8.06 4 5 4 C5 5.32 5 6.64 5 8 C7.31 8 9.62 8 12 8 C12 9.65 12 11.3 12 13 C9.69 13 7.38 13 5 13 C5 14.32 5 15.64 5 17 C7.97 17 10.94 17 14 17 C14 18.32 14 19.64 14 21 C9.38 21 4.76 21 0 21 C0 14.07 0 7.14 0 0 Z " fill="#DB6E3D" transform="translate(104,141)"/>
<path d="M0 0 C1.8125 1.1875 1.8125 1.1875 3 3 C3.48473314 6.37602372 3.25234955 7.64727141 1.2421875 10.45703125 C0.46101562 11.23433594 -0.32015625 12.01164062 -1.125 12.8125 C-1.89070312 13.60269531 -2.65640625 14.39289063 -3.4453125 15.20703125 C-6.57182819 17.40132896 -8.25559908 17.51342894 -12 17 C-14 15 -14 15 -14.38671875 12.1796875 C-13.89918343 8.17106374 -12.68382758 6.90733048 -9.8125 4.125 C-9.03519531 3.34382813 -8.25789062 2.56265625 -7.45703125 1.7578125 C-4.64727141 -0.25234955 -3.37602372 -0.48473314 0 0 Z " fill="#F0C3AF" transform="translate(161,50)"/>
<path d="M0 0 C2 3 2 3 2.0625 5.75 C0.55126507 10.37260097 -2.12821007 13.11793142 -6 16 C-9.25 17.0625 -9.25 17.0625 -12 17 C-12.99 16.34 -13.98 15.68 -15 15 C-14.67 13.35 -14.34 11.7 -14 10 C-12.68 10.66 -11.36 11.32 -10 12 C-10 11.67 -10 11.34 -10 11 C-10.66 10.34 -11.32 9.68 -12 9 C-11.90849201 5.52269657 -11.21809552 4.23055813 -8.8125 1.6875 C-5.52641606 -0.28415036 -3.76768642 -0.58608455 0 0 Z " fill="#EFC1AC" transform="translate(140,58)"/>
<path d="M0 0 C0.99 0.66 1.98 1.32 3 2 C2.67 2.99 2.34 3.98 2 5 C-0.31 5 -2.62 5 -5 5 C-5 5.66 -5 6.32 -5 7 C-4.43410156 7.27714844 -3.86820313 7.55429688 -3.28515625 7.83984375 C-2.55167969 8.20207031 -1.81820312 8.56429687 -1.0625 8.9375 C0.03384766 9.47697266 0.03384766 9.47697266 1.15234375 10.02734375 C3 11 3 11 4 12 C3.75 15.4375 3.75 15.4375 3 19 C-0.70126859 21.46751239 -2.62223532 21.30721156 -7 21 C-9.4375 20 -9.4375 20 -11 19 C-10.505 17.515 -10.505 17.515 -10 16 C-7.03 16.33 -4.06 16.66 -1 17 C-1 15.68 -1 14.36 -1 13 C-1.928125 12.731875 -2.85625 12.46375 -3.8125 12.1875 C-8.33043478 10.50434783 -8.33043478 10.50434783 -10 8 C-10.42317323 5.17884512 -10.38718434 3.66049093 -8.9375 1.1875 C-5.93702602 -0.65150018 -3.43518387 -0.30671285 0 0 Z " fill="#DA6937" transform="translate(182,141)"/>
<path d="M0 0 C2.27493568 0.27227577 4.49132905 0.62614186 6.73046875 1.109375 C7.06046875 2.099375 7.39046875 3.089375 7.73046875 4.109375 C4.8381256 4.93575876 2.84304444 5.109375 -0.26953125 5.109375 C-0.26953125 5.769375 -0.26953125 6.429375 -0.26953125 7.109375 C0.65859375 7.5425 1.58671875 7.975625 2.54296875 8.421875 C7.39713542 10.99172794 7.39713542 10.99172794 8.73046875 13.109375 C8.60546875 16.171875 8.60546875 16.171875 7.73046875 19.109375 C4.02920016 21.57688739 2.10823343 21.41658656 -2.26953125 21.109375 C-4.70703125 20.109375 -4.70703125 20.109375 -6.26953125 19.109375 C-5.77453125 17.624375 -5.77453125 17.624375 -5.26953125 16.109375 C-2.29953125 16.439375 0.67046875 16.769375 3.73046875 17.109375 C2.15469105 12.93555501 2.15469105 12.93555501 -1.26953125 11.671875 C-4.26953125 10.109375 -4.26953125 10.109375 -5.64453125 7.421875 C-6.26953125 5.109375 -6.26953125 5.109375 -4.83203125 2.546875 C-2.26953125 0.109375 -2.26953125 0.109375 0 0 Z " fill="#DA6937" transform="translate(156.26953125,140.890625)"/>
<path d="M0 0 C0.80824219 0.11988281 1.61648437 0.23976562 2.44921875 0.36328125 C3.06410156 0.47027344 3.67898437 0.57726562 4.3125 0.6875 C4.6425 1.6775 4.9725 2.6675 5.3125 3.6875 C2.42015685 4.51388376 0.42507569 4.6875 -2.6875 4.6875 C-2.6875 5.3475 -2.6875 6.0075 -2.6875 6.6875 C-1.759375 7.14125 -0.83125 7.595 0.125 8.0625 C3.3125 9.6875 3.3125 9.6875 6.3125 11.6875 C6.90966883 14.92927364 6.60218623 16.25876438 4.75 19 C1.42522628 21.30176642 -0.71941523 21.11265194 -4.6875 20.6875 C-7.125 19.6875 -7.125 19.6875 -8.6875 18.6875 C-8.1925 17.2025 -8.1925 17.2025 -7.6875 15.6875 C-4.7175 16.0175 -1.7475 16.3475 1.3125 16.6875 C-0.96530909 12.13188183 -2.21764136 11.68467088 -6.6875 9.6875 C-7.6875 8.6875 -7.6875 8.6875 -7.9375 5.8125 C-7.6875 2.6875 -7.6875 2.6875 -6.46484375 0.97265625 C-4.08159106 -0.75061877 -2.86089674 -0.45608499 0 0 Z " fill="#DA6836" transform="translate(212.6875,141.3125)"/>
<path d="M0 0 C1.22589844 0.15275391 1.22589844 0.15275391 2.4765625 0.30859375 C3.41628906 0.43427734 3.41628906 0.43427734 4.375 0.5625 C4.705 1.8825 5.035 3.2025 5.375 4.5625 C3.375 5.5625 3.375 5.5625 -0.125 5 C-1.28 4.855625 -2.435 4.71125 -3.625 4.5625 C-6.00494368 6.50582332 -6.00494368 6.50582332 -5.875 10.0625 C-6.00494368 13.61917668 -6.00494368 13.61917668 -3.625 15.5625 C-1.6318433 15.58625926 -1.6318433 15.58625926 0.5 15.1875 C1.77875 14.98125 3.0575 14.775 4.375 14.5625 C4.705 15.8825 5.035 17.2025 5.375 18.5625 C1.70591443 21.00855705 -1.36118769 21.40196402 -5.625 20.5625 C-9.508836 17.42237727 -11.4273937 15.27508797 -12 10.3125 C-11.50572704 5.36977042 -10.08671699 4.02421699 -6.625 0.5625 C-4.10446405 -0.69776798 -2.7707902 -0.35624445 0 0 Z " fill="#D96633" transform="translate(46.625,141.4375)"/>
<path d="M0 0 C4.29 0 8.58 0 13 0 C13 1.32 13 2.64 13 4 C10.03 4 7.06 4 4 4 C4 5.65 4 7.3 4 9 C6.31 9 8.62 9 11 9 C11 10.32 11 11.64 11 13 C8.69 13 6.38 13 4 13 C4 15.64 4 18.28 4 21 C2.68 21 1.36 21 0 21 C0 14.07 0 7.14 0 0 Z " fill="#D96430" transform="translate(85,141)"/>
<path d="M0 0 C5.28 0 10.56 0 16 0 C16 1.32 16 2.64 16 4 C14.02 4 12.04 4 10 4 C10 9.61 10 15.22 10 21 C8.68 21 7.36 21 6 21 C6 15.39 6 9.78 6 4 C4.02 4 2.04 4 0 4 C0 2.68 0 1.36 0 0 Z " fill="#D8612D" transform="translate(224,141)"/>
<path d="M0 0 C1.32 0.66 2.64 1.32 4 2 C4 2.66 4 3.32 4 4 C2.6015625 5.375 2.6015625 5.375 0.625 7 C-4.54143497 11.37943323 -9.25777524 16.17031617 -14 21 C-14.33 20.34 -14.66 19.68 -15 19 C-15.66 19 -16.32 19 -17 19 C-15.60652624 15.84795019 -13.97514921 13.73828227 -11.5234375 11.328125 C-10.51796875 10.33232422 -10.51796875 10.33232422 -9.4921875 9.31640625 C-8.79351562 8.63449219 -8.09484375 7.95257813 -7.375 7.25 C-6.66859375 6.55261719 -5.9621875 5.85523438 -5.234375 5.13671875 C-3.49401297 3.41987512 -1.74915019 1.70788168 0 0 Z " fill="#FDF8F6" transform="translate(157,39)"/>
<path d="M0 0 C1.32 0 2.64 0 4 0 C4 6.93 4 13.86 4 21 C2.68 21 1.36 21 0 21 C0 14.07 0 7.14 0 0 Z " fill="#D85F29" transform="translate(193,141)"/>
<path d="M0 0 C0.33 1.32 0.66 2.64 1 4 C-0.2065625 5.175625 -0.2065625 5.175625 -1.4375 6.375 C-4.32993882 8.78811626 -4.32993882 8.78811626 -4.3125 12.3125 C-4.209375 13.199375 -4.10625 14.08625 -4 15 C-2.02 15.66 -0.04 16.32 2 17 C1.34644531 17.48984375 0.69289062 17.9796875 0.01953125 18.484375 C-4.00498566 21.83727136 -7.63230849 25.5270538 -11.3125 29.25 C-12.42334961 30.36761719 -12.42334961 30.36761719 -13.55664062 31.5078125 C-15.37339236 33.33628521 -17.18775796 35.16705936 -19 37 C-19 34 -19 34 -17.62304688 32.2824707 C-16.99462891 31.66976318 -16.36621094 31.05705566 -15.71875 30.42578125 C-15.04199219 29.75869141 -14.36523438 29.09160156 -13.66796875 28.40429688 C-12.59482422 27.36885742 -12.59482422 27.36885742 -11.5 26.3125 C-10.78457031 25.61060547 -10.06914062 24.90871094 -9.33203125 24.18554688 C-7.56120423 22.45013639 -5.78376544 20.7220927 -4 19 C-4.66 18.01 -5.32 17.02 -6 16 C-6.165 14.96875 -6.33 13.9375 -6.5 12.875 C-6.665 11.92625 -6.83 10.9775 -7 10 C-7.66 9.67 -8.32 9.34 -9 9 C-6.03 6.03 -3.06 3.06 0 0 Z " fill="#DB6D3C" transform="translate(152,50)"/>
<path d="M0 0 C3.36591866 1.44253657 5.51047079 3.33264727 8 6 C7.375 7.9375 7.375 7.9375 6 10 C3.0625 10.875 3.0625 10.875 0 11 C-0.99 10.34 -1.98 9.68 -3 9 C-2.67 7.35 -2.34 5.7 -2 4 C-0.68 4.66 0.64 5.32 2 6 C2 5.67 2 5.34 2 5 C1.34 4.34 0.68 3.68 0 3 C0 2.01 0 1.02 0 0 Z " fill="#FBF2ED" transform="translate(128,64)"/>
<path d="M0 0 C3.57104439 1.87949705 5.54744301 3.17053157 7 7 C5.875 8.5 5.875 8.5 4 10 C0.9375 10.3125 0.9375 10.3125 -2 10 C-2.66 9.34 -3.32 8.68 -4 8 C-3.625 5.375 -3.625 5.375 -3 3 C-0.5 4.375 -0.5 4.375 2 6 C2 6.66 2 7.32 2 8 C2.66 8 3.32 8 4 8 C2.35 5.69 0.7 3.38 -1 1 C-0.67 0.67 -0.34 0.34 0 0 Z " fill="#FCF5F2" transform="translate(151,57)"/>
<path d="M0 0 C2 3 2 3 1.75 6.125 C1.5025 7.07375 1.255 8.0225 1 9 C0.01 9.495 0.01 9.495 -1 10 C-1.28875 9.21625 -1.5775 8.4325 -1.875 7.625 C-2.84912254 4.90328368 -2.84912254 4.90328368 -5 3 C-5.99 3.495 -5.99 3.495 -7 4 C-7.66 3.34 -8.32 2.68 -9 2 C-5.54970958 -0.30019361 -4.05445642 -0.43132515 0 0 Z " fill="#FAEDE8" transform="translate(140,58)"/>
<path d="M0 0 C0.33 1.32 0.66 2.64 1 4 C-0.2065625 5.175625 -0.2065625 5.175625 -1.4375 6.375 C-4.30479951 8.76619088 -4.30479951 8.76619088 -4.3125 12.125 C-4.209375 13.07375 -4.10625 14.0225 -4 15 C-4 15.99 -4 16.98 -4 18 C-6 16 -6 16 -6.5 12.9375 C-6.665 11.968125 -6.83 10.99875 -7 10 C-7.66 9.67 -8.32 9.34 -9 9 C-6.03 6.03 -3.06 3.06 0 0 Z " fill="#DF7C51" transform="translate(152,50)"/>
<path d="M0 0 C4.44936709 -0.36075949 4.44936709 -0.36075949 6.8125 1.1875 C8.36678206 3.55982525 8.22537188 5.22041345 8 8 C7.01 8.495 7.01 8.495 6 9 C4.99406757 7.8803014 3.9954151 6.7540588 3 5.625 C2.443125 4.99851562 1.88625 4.37203125 1.3125 3.7265625 C0 2 0 2 0 0 Z " fill="#FCF5F2" transform="translate(156,50)"/>
<path d="M0 0 C1.32 0.66 2.64 1.32 4 2 C3.34 3.32 2.68 4.64 2 6 C0.68 5.34 -0.64 4.68 -2 4 C-1.34 2.68 -0.68 1.36 0 0 Z " fill="#FAEDE7" transform="translate(164,46)"/>
<path d="M0 0 C2.12038635 2.61514317 4.13091744 5.19637616 6 8 C5.401875 7.690625 4.80375 7.38125 4.1875 7.0625 C1.91043228 5.89790296 1.91043228 5.89790296 -1 5 C-1.66 5.66 -2.32 6.32 -3 7 C-2.25 2.25 -2.25 2.25 0 0 Z " fill="#E9A88A" transform="translate(127,64)"/>
<path d="M0 0 C0.66 0.33 1.32 0.66 2 1 C2.625 3.5625 2.625 3.5625 3 6 C1.35 6 -0.3 6 -2 6 C-1.34 4.02 -0.68 2.04 0 0 Z " fill="#F8E6DE" transform="translate(133,148)"/>
<path d="M0 0 C0.66 0 1.32 0 2 0 C2.66 1.98 3.32 3.96 4 6 C2.35 6 0.7 6 -1 6 C-0.67 4.02 -0.34 2.04 0 0 Z " fill="#F8E3DA" transform="translate(67,148)"/>
</svg>
