<?xml version="1.0" encoding="UTF-8"?>
<svg version="1.1" xmlns="http://www.w3.org/2000/svg" width="208" height="57">
<path d="M0 0 C68.64 0 137.28 0 208 0 C208 18.81 208 37.62 208 57 C139.36 57 70.72 57 0 57 C0 38.19 0 19.38 0 0 Z " fill="#FCFCFC" transform="translate(0,0)"/>
<path d="M0 0 C3.2917472 2.43589292 4.7476827 4.62152405 7 8 C7.87433201 14.55749009 7.87433201 14.55749009 5.76171875 18.04296875 C3.27732478 21.03287217 1.74839252 22.75053583 -2 24 C-3.89470816 24.0685495 -5.7916834 24.08480372 -7.6875 24.0625 C-8.68136719 24.05347656 -9.67523438 24.04445313 -10.69921875 24.03515625 C-11.83810547 24.01775391 -11.83810547 24.01775391 -13 24 C-13 22.68 -13 21.36 -13 20 C-12.31292969 19.95101563 -11.62585937 19.90203125 -10.91796875 19.8515625 C-10.01691406 19.77679687 -9.11585937 19.70203125 -8.1875 19.625 C-7.29417969 19.55539063 -6.40085938 19.48578125 -5.48046875 19.4140625 C-2.75601501 19.13354964 -2.75601501 19.13354964 0 17 C0.83902226 13.15448132 1.25360525 10.76081574 0 7 C-3.51824511 4.65450326 -4.85775694 4.42008597 -9 5 C-12.20948363 7.55285774 -13.81593193 9.03675318 -14.59594727 13.11865234 C-14.58619873 14.26285645 -14.5764502 15.40706055 -14.56640625 16.5859375 C-14.57736328 17.84664062 -14.58832031 19.10734375 -14.59960938 20.40625 C-14.58736328 21.7159375 -14.57511719 23.025625 -14.5625 24.375 C-14.46161695 40.0506741 -14.46161695 40.0506741 -19 46 C-19.66 46 -20.32 46 -21 46 C-21 46.66 -21 47.32 -21 48 C-26.0671962 50.89554069 -31.23523589 50.67583123 -36.8125 49.3125 C-40.19477381 47.28313571 -42.25021351 44.49957298 -44 41 C-44.59106487 35.31668392 -44.27243416 30.85222997 -41 26 C-36.77052635 21.71529069 -33.41022743 21.36251117 -27.6875 21.25 C-26.57665039 21.20552734 -26.57665039 21.20552734 -25.44335938 21.16015625 C-23.62947954 21.08994155 -21.81473722 21.04264952 -20 21 C-19.97421875 20.13117187 -19.9484375 19.26234375 -19.921875 18.3671875 C-19.34927697 6.73303671 -19.34927697 6.73303671 -15 2 C-10.3388576 -1.10742827 -5.45489036 -0.73714735 0 0 Z " fill="#FEFCFA" transform="translate(52,6)"/>
<path d="M0 0 C3.2917472 2.43589292 4.7476827 4.62152405 7 8 C7.87433201 14.55749009 7.87433201 14.55749009 5.76171875 18.04296875 C3.27732478 21.03287217 1.74839252 22.75053583 -2 24 C-3.89470816 24.0685495 -5.7916834 24.08480372 -7.6875 24.0625 C-8.68136719 24.05347656 -9.67523438 24.04445313 -10.69921875 24.03515625 C-11.83810547 24.01775391 -11.83810547 24.01775391 -13 24 C-13 22.68 -13 21.36 -13 20 C-12.31292969 19.95101563 -11.62585937 19.90203125 -10.91796875 19.8515625 C-10.01691406 19.77679687 -9.11585937 19.70203125 -8.1875 19.625 C-7.29417969 19.55539063 -6.40085938 19.48578125 -5.48046875 19.4140625 C-2.75601501 19.13354964 -2.75601501 19.13354964 0 17 C0.83902226 13.15448132 1.25360525 10.76081574 0 7 C-3.51824511 4.65450326 -4.85775694 4.42008597 -9 5 C-12.20948363 7.55285774 -13.81593193 9.03675318 -14.59594727 13.11865234 C-14.58619873 14.26285645 -14.5764502 15.40706055 -14.56640625 16.5859375 C-14.57736328 17.84664062 -14.58832031 19.10734375 -14.59960938 20.40625 C-14.58736328 21.7159375 -14.57511719 23.025625 -14.5625 24.375 C-14.46161695 40.0506741 -14.46161695 40.0506741 -19 46 C-19.66 46 -20.32 46 -21 46 C-21 46.66 -21 47.32 -21 48 C-26.0671962 50.89554069 -31.23523589 50.67583123 -36.8125 49.3125 C-40.19477381 47.28313571 -42.25021351 44.49957298 -44 41 C-44.06950541 39.45976004 -44.08452357 37.91665012 -44.0625 36.375 C-44.05347656 35.55773438 -44.04445313 34.74046875 -44.03515625 33.8984375 C-44.02355469 33.27195313 -44.01195312 32.64546875 -44 32 C-43.67 32 -43.34 32 -43 32 C-42.93683594 32.66386719 -42.87367187 33.32773437 -42.80859375 34.01171875 C-42.15613907 38.7162604 -41.66662538 42.14213961 -37.75 45.125 C-34.38113212 47.08494177 -31.91139511 47.74899055 -28 47 C-23.77518254 44.7241177 -23.77518254 44.7241177 -21 41 C-20.34 41 -19.68 41 -19 41 C-19.02094727 40.03175293 -19.04189453 39.06350586 -19.06347656 38.06591797 C-19.13618512 34.45425355 -19.18191056 30.84265309 -19.21972656 27.23046875 C-19.23977222 25.67078756 -19.26701657 24.11118087 -19.30175781 22.55175781 C-19.35059126 20.30254686 -19.37303815 18.0543341 -19.390625 15.8046875 C-19.41127014 15.1138205 -19.43191528 14.42295349 -19.45318604 13.71115112 C-19.45549191 8.67211523 -18.17135091 5.86647094 -15 2 C-10.3388576 -1.10742827 -5.45489036 -0.73714735 0 0 Z " fill="#FD6A19" transform="translate(52,6)"/>
<path d="M0 0 C2.3125 1.0625 2.3125 1.0625 4 3 C5.10373378 6.97344161 5.41543583 9.08999772 3.6875 12.875 C2 15 2 15 0 16 C-1.70702735 16.06996014 -3.41668003 16.08440154 -5.125 16.0625 C-6.03507812 16.05347656 -6.94515625 16.04445313 -7.8828125 16.03515625 C-8.93082031 16.01775391 -8.93082031 16.01775391 -10 16 C-10 17.32 -10 18.64 -10 20 C-6.7 20 -3.4 20 0 20 C0 20.33 0 20.66 0 21 C-3.63 21 -7.26 21 -11 21 C-11 22.65 -11 24.3 -11 26 C-11.33 26 -11.66 26 -12 26 C-12.11667875 22.77113991 -12.18740546 19.54282555 -12.25 16.3125 C-12.28351562 15.40048828 -12.31703125 14.48847656 -12.3515625 13.54882812 C-12.41507561 9.18230205 -12.43722486 6.71274879 -10.109375 2.91796875 C-6.71451812 -0.1688363 -4.54902786 -0.36392223 0 0 Z " fill="#FEF1EA" transform="translate(49,10)"/>
<path d="M0 0 C1.46282033 0.09033353 2.92182192 0.24703491 4.375 0.4375 C7.95071909 0.89756809 11.01323133 1.24067529 14.5625 0.375 C15.7690625 0.189375 15.7690625 0.189375 17 0 C19 2 19 2 19.1953125 4.8203125 C19.17210937 5.91085938 19.14890625 7.00140625 19.125 8.125 C19.10695312 9.22070312 19.08890625 10.31640625 19.0703125 11.4453125 C19.04710937 12.28835937 19.02390625 13.13140625 19 14 C19.66 14.33 20.32 14.66 21 15 C16.05 15.33 11.1 15.66 6 16 C6 15.34 6 14.68 6 14 C6.66 14 7.32 14 8 14 C8 10.37 8 6.74 8 3 C6.35 3.33 4.7 3.66 3 4 C2.67 7.3 2.34 10.6 2 14 C2.66 14.33 3.32 14.66 4 15 C1.69 15 -0.62 15 -3 15 C-2.34 14.67 -1.68 14.34 -1 14 C-1.01160156 13.07316406 -1.02320313 12.14632812 -1.03515625 11.19140625 C-1.04417969 9.99386719 -1.05320313 8.79632813 -1.0625 7.5625 C-1.07410156 6.36753906 -1.08570313 5.17257813 -1.09765625 3.94140625 C-1 1 -1 1 0 0 Z " fill="#F6F6F6" transform="translate(158,36)"/>
<path d="M0 0 C10 0 10 0 14 3 C14.5 5.4375 14.5 5.4375 14 8 C12.375 10.3125 12.375 10.3125 10 12 C6.75 12.25 6.75 12.25 4 12 C4 14.64 4 17.28 4 20 C4.99 20.33 5.98 20.66 7 21 C4.03 21 1.06 21 -2 21 C-1.34 20.67 -0.68 20.34 0 20 C0 13.4 0 6.8 0 0 Z " fill="#777777" transform="translate(57,30)"/>
<path d="M0 0 C1.32 0 2.64 0 4 0 C4.02505615 0.56509277 4.0501123 1.13018555 4.07592773 1.71240234 C4.19179956 4.26683742 4.31456537 6.8208955 4.4375 9.375 C4.47681641 10.26445313 4.51613281 11.15390625 4.55664062 12.0703125 C4.61948242 13.34648438 4.61948242 13.34648438 4.68359375 14.6484375 C4.72025146 15.43395996 4.75690918 16.21948242 4.79467773 17.02880859 C4.890891 19.07523496 4.890891 19.07523496 6 21 C-3.58152174 22.7826087 -3.58152174 22.7826087 -6.8125 21 C-8.71081842 17.80283213 -8.64456614 14.55943748 -8 11 C-6.3125 8.5 -6.3125 8.5 -4 7 C-1.25 6.75 -1.25 6.75 1 7 C1 5.35 1 3.7 1 2 C0.34 1.67 -0.32 1.34 -1 1 C-0.67 0.67 -0.34 0.34 0 0 Z " fill="#363636" transform="translate(148,29)"/>
<path d="M0 0 C0.66 0 1.32 0 2 0 C2.23187012 0.56509277 2.46374023 1.13018555 2.70263672 1.71240234 C3.7549436 4.26875605 4.81486897 6.82188167 5.875 9.375 C6.23980469 10.26445313 6.60460937 11.15390625 6.98046875 12.0703125 C7.33496094 12.92109375 7.68945312 13.771875 8.0546875 14.6484375 C8.37937012 15.43395996 8.70405273 16.21948242 9.03857422 17.02880859 C9.94818617 19.16522864 9.94818617 19.16522864 12 21 C9.36 21 6.72 21 4 21 C4 19.02 4 17.04 4 15 C1.36 15 -1.28 15 -4 15 C-4.99 17.475 -4.99 17.475 -6 20 C-5.34 20.33 -4.68 20.66 -4 21 C-5.98 21 -7.96 21 -10 21 C-9.69707031 20.40574219 -9.39414063 19.81148437 -9.08203125 19.19921875 C-5.88421063 12.87245364 -2.89152245 6.47208855 0 0 Z " fill="#494949" transform="translate(126,30)"/>
<path d="M0 0 C0.91007812 0.00902344 1.82015625 0.01804687 2.7578125 0.02734375 C3.45648438 0.03894531 4.15515625 0.05054687 4.875 0.0625 C4.875 2.3725 4.875 4.6825 4.875 7.0625 C4.1325 6.2375 3.39 5.4125 2.625 4.5625 C0.00112615 1.61405147 0.00112615 1.61405147 -4.125 2.0625 C-4.24713894 4.40398231 -4.24713894 4.40398231 -3.125 7.0625 C-0.61294184 9.01692456 2.10381195 10.50967911 4.875 12.0625 C5.875 13.0625 5.875 13.0625 6.1875 15.4375 C5.875 18.0625 5.875 18.0625 4.18359375 19.71484375 C1.42038276 21.3278857 -0.20419604 21.37516331 -3.375 21.25 C-4.26703125 21.22292969 -5.1590625 21.19585937 -6.078125 21.16796875 C-6.75359375 21.13316406 -7.4290625 21.09835938 -8.125 21.0625 C-8.125 18.7525 -8.125 16.4425 -8.125 14.0625 C-7.774375 14.7225 -7.42375 15.3825 -7.0625 16.0625 C-5.15942858 18.47353961 -5.15942858 18.47353961 -1.4375 18.3125 C-0.344375 18.23 0.74875 18.1475 1.875 18.0625 C2.205 16.7425 2.535 15.4225 2.875 14.0625 C2.17375 13.835625 1.4725 13.60875 0.75 13.375 C-3.010941 11.65804867 -5.24895821 10.07549616 -8.125 7.0625 C-8.125 3.8125 -8.125 3.8125 -7.125 1.0625 C-4.60024538 -0.19987731 -2.81299534 -0.03606404 0 0 Z " fill="#151515" transform="translate(82.125,29.9375)"/>
<path d="M0 0 C1.98 0 3.96 0 6 0 C5.67 6.27 5.34 12.54 5 19 C13.40133391 19.01512945 13.40133391 19.01512945 16 16 C15.67 17.65 15.34 19.3 15 21 C9.72 21 4.44 21 -1 21 C-0.34 20.67 0.32 20.34 1 20 C0.67 13.4 0.34 6.8 0 0 Z " fill="#666666" transform="translate(92,30)"/>
<path d="M0 0 C3.28453 0 5.84698314 0.23304995 9 1 C10 2 10 2 10.09765625 4.72265625 C10.08605469 5.82480469 10.07445312 6.92695312 10.0625 8.0625 C10.05347656 9.16722656 10.04445312 10.27195312 10.03515625 11.41015625 C10.02355469 12.26480469 10.01195312 13.11945312 10 14 C10.66 14.33 11.32 14.66 12 15 C9.69 15 7.38 15 5 15 C5.66 14.67 6.32 14.34 7 14 C7 10.37 7 6.74 7 3 C5.35 3 3.7 3 2 3 C2.33 6.96 2.66 10.92 3 15 C1.02 15 -0.96 15 -3 15 C-2.67 14.34 -2.34 13.68 -2 13 C-1.68567477 9.88730709 -1.48910126 6.77382422 -1.28125 3.65234375 C-1 1 -1 1 0 0 Z " fill="#373737" transform="translate(192,36)"/>
<path d="M0 0 C1.99609375 0.05078125 1.99609375 0.05078125 4.4375 0.3125 C5.64212891 0.43044922 5.64212891 0.43044922 6.87109375 0.55078125 C9 1 9 1 11 3 C11.4140625 5.8203125 11.4140625 5.8203125 11.625 9.125 C11.69976562 10.22070312 11.77453125 11.31640625 11.8515625 12.4453125 C11.92503906 13.70988281 11.92503906 13.70988281 12 15 C10.02 15 8.04 15 6 15 C6.66 14.67 7.32 14.34 8 14 C8 10.37 8 6.74 8 3 C6.35 3.33 4.7 3.66 3 4 C2.67 7.3 2.34 10.6 2 14 C2.66 14.33 3.32 14.66 4 15 C1.69 15 -0.62 15 -3 15 C-2.34 14.67 -1.68 14.34 -1 14 C-1.01160156 13.07316406 -1.02320313 12.14632812 -1.03515625 11.19140625 C-1.04417969 9.99386719 -1.05320313 8.79632813 -1.0625 7.5625 C-1.07410156 6.36753906 -1.08570313 5.17257813 -1.09765625 3.94140625 C-1 1 -1 1 0 0 Z " fill="#3B3B3B" transform="translate(158,36)"/>
<path d="M0 0 C10 0 10 0 14 3 C14.561068 6.7404533 14.14762184 7.77856724 12 11 C10.68 10.67 9.36 10.34 8 10 C8.33 9.67 8.66 9.34 9 9 C9.04080783 7.00041636 9.04254356 4.99954746 9 3 C7.02 2.34 5.04 1.68 3 1 C3 7.27 3 13.54 3 20 C2.34 20 1.68 20 1 20 C0.67 13.4 0.34 6.8 0 0 Z " fill="#080808" transform="translate(57,30)"/>
<path d="M0 0 C0.66 0 1.32 0 2 0 C2.23187012 0.56509277 2.46374023 1.13018555 2.70263672 1.71240234 C3.7549436 4.26875605 4.81486897 6.82188167 5.875 9.375 C6.23980469 10.26445313 6.60460937 11.15390625 6.98046875 12.0703125 C7.33496094 12.92109375 7.68945312 13.771875 8.0546875 14.6484375 C8.37937012 15.43395996 8.70405273 16.21948242 9.03857422 17.02880859 C9.94818617 19.16522864 9.94818617 19.16522864 12 21 C9.36 21 6.72 21 4 21 C3.95101562 20.39671875 3.90203125 19.7934375 3.8515625 19.171875 C3.77679688 18.37265625 3.70203125 17.5734375 3.625 16.75 C3.52058594 15.56664062 3.52058594 15.56664062 3.4140625 14.359375 C2.98326166 11.90462303 2.12090052 10.20534899 1 8 C1 7.01 1 6.02 1 5 C0.34 5 -0.32 5 -1 5 C-0.67 3.35 -0.34 1.7 0 0 Z " fill="#2E2E2E" transform="translate(126,30)"/>
<path d="M0 0 C0.99 0 1.98 0 3 0 C3.33 2.97 3.66 5.94 4 9 C4.99 9 5.98 9 7 9 C7 13.29 7 17.58 7 22 C5.02 22.33 3.04 22.66 1 23 C1.66 22.34 2.32 21.68 3 21 C2.67 20.67 2.34 20.34 2 20 C1.91348389 18.58429877 1.89295096 17.164405 1.90234375 15.74609375 C1.90556641 14.89208984 1.90878906 14.03808594 1.91210938 13.15820312 C1.92048828 12.26037109 1.92886719 11.36253906 1.9375 10.4375 C1.94201172 9.53580078 1.94652344 8.63410156 1.95117188 7.70507812 C1.96299775 5.46998686 1.9794778 3.23502563 2 1 C1.34 0.67 0.68 0.34 0 0 Z " fill="#E1E1E1" transform="translate(150,28)"/>
<path d="M0 0 C1.62241789 -0.01313699 3.24508354 0.01236215 4.8671875 0.046875 C4.8671875 1.366875 4.8671875 2.686875 4.8671875 4.046875 C3.74699219 4.10746094 2.62679688 4.16804688 1.47265625 4.23046875 C-0.00001234 4.31488924 -1.47266794 4.39953649 -2.9453125 4.484375 C-3.68330078 4.52369141 -4.42128906 4.56300781 -5.18164062 4.60351562 C-8.36352592 4.79068535 -11.09443628 5.03408293 -14.1328125 6.046875 C-15.51858173 7.67020467 -16.85922518 9.33411965 -18.1328125 11.046875 C-17.92258969 7.36797587 -17.15304782 6.06913385 -14.6328125 3.296875 C-10.19900038 -0.09493811 -5.36866557 0.11799265 0 0 Z " fill="#FD8441" transform="translate(27.1328125,26.953125)"/>
<path d="M0 0 C1.65 0 3.3 0 5 0 C5 3.63 5 7.26 5 11 C1 12 1 12 -1 11 C-1.02688151 9.35425434 -1.04634123 7.70838587 -1.0625 6.0625 C-1.07410156 5.14597656 -1.08570313 4.22945312 -1.09765625 3.28515625 C-1 1 -1 1 0 0 Z " fill="#EFEFEF" transform="translate(161,39)"/>
<path d="M0 0 C0.33 4.95 0.66 9.9 1 15 C-0.98 15 -2.96 15 -5 15 C-5 10.38 -5 5.76 -5 1 C-3 0 -3 0 0 0 Z " fill="#545454" transform="translate(186,36)"/>
<path d="M0 0 C1.65 0 3.3 0 5 0 C5 3.63 5 7.26 5 11 C0 10 0 10 -1 9 C-1.1328125 7.1875 -1.1328125 7.1875 -1.125 5 C-1.12757813 4.278125 -1.13015625 3.55625 -1.1328125 2.8125 C-1 1 -1 1 0 0 Z " fill="#F5F5F5" transform="translate(144,38)"/>
<path d="M0 0 C0.33 0 0.66 0 1 0 C1.06316406 0.66386719 1.12632813 1.32773437 1.19140625 2.01171875 C1.84386093 6.7162604 2.33337462 10.14213961 6.25 13.125 C10.38954988 15.56914172 13.73802731 15.47620478 18.375 14.5 C18.91125 14.335 19.4475 14.17 20 14 C19.67 15.32 19.34 16.64 19 18 C8.98773006 18.39263804 8.98773006 18.39263804 5 16 C1.42581837 12.02868707 -0.13824105 9.6768733 -0.0625 4.375 C-0.05347656 3.55773438 -0.04445313 2.74046875 -0.03515625 1.8984375 C-0.02355469 1.27195313 -0.01195312 0.64546875 0 0 Z " fill="#FD7B33" transform="translate(8,38)"/>
<path d="M0 0 C4.875 0.875 4.875 0.875 6 2 C6.07244053 4.01964199 6.08377188 6.04167124 6.0625 8.0625 C6.05347656 9.16722656 6.04445312 10.27195312 6.03515625 11.41015625 C6.02355469 12.26480469 6.01195312 13.11945312 6 14 C6.66 14.33 7.32 14.66 8 15 C6.02 15 4.04 15 2 15 C2.33 11.04 2.66 7.08 3 3 C1.35 3 -0.3 3 -2 3 C-1.34 2.01 -0.68 1.02 0 0 Z " fill="#3B3B3B" transform="translate(171,36)"/>
<path d="M0 0 C4.875 0.875 4.875 0.875 6 2 C6.125 5 6.125 5 6 8 C5 9 5 9 2.4375 9.0625 C1.633125 9.041875 0.82875 9.02125 0 9 C0 6.03 0 3.06 0 0 Z " fill="#F2F2F2" transform="translate(61,31)"/>
<path d="M0 0 C1.98 0 3.96 0 6 0 C5.01 0.495 5.01 0.495 4 1 C4 7.27 4 13.54 4 20 C3.34 20 2.68 20 2 20 C1.93941406 18.72382812 1.87882812 17.44765625 1.81640625 16.1328125 C1.73200432 14.46352984 1.64735614 12.79425963 1.5625 11.125 C1.52318359 10.28324219 1.48386719 9.44148438 1.44335938 8.57421875 C1.40146484 7.76855469 1.35957031 6.96289062 1.31640625 6.1328125 C1.26141968 5.01737061 1.26141968 5.01737061 1.20532227 3.87939453 C1.10044135 1.91135688 1.10044135 1.91135688 0 0 Z " fill="#050505" transform="translate(92,30)"/>
<path d="M0 0 C6.75 0.75 6.75 0.75 9 3 C9.38286803 6.73296326 9.14915785 7.77626323 7 11 C5.68 10.67 4.36 10.34 3 10 C3.33 9.67 3.66 9.34 4 9 C4.41702122 6.0842309 4.41702122 6.0842309 4 3 C2.11922127 1.08743288 2.11922127 1.08743288 0 0 Z " fill="#272727" transform="translate(62,30)"/>
<path d="M0 0 C0.350625 0.66 0.70125 1.32 1.0625 2 C2.95559535 4.37308948 2.95559535 4.37308948 6.5625 4.4375 C8.2640625 4.2209375 8.2640625 4.2209375 10 4 C10.66 3.01 11.32 2.02 12 1 C12.33 2.32 12.66 3.64 13 5 C9.68629 7.20914 8.6553979 7.22481553 4.8125 7.125 C3.91144531 7.10695313 3.01039062 7.08890625 2.08203125 7.0703125 C1.39496094 7.04710937 0.70789063 7.02390625 0 7 C0 4.69 0 2.38 0 0 Z " fill="#545454" transform="translate(74,44)"/>
<path d="M0 0 C0.66 0 1.32 0 2 0 C2.04898438 0.84304687 2.09796875 1.68609375 2.1484375 2.5546875 C2.22320312 3.65039062 2.29796875 4.74609375 2.375 5.875 C2.44460937 6.96554688 2.51421875 8.05609375 2.5859375 9.1796875 C2.73253491 12.13046474 2.73253491 12.13046474 5 14 C2.69 14 0.38 14 -2 14 C-1.34 13.67 -0.68 13.34 0 13 C0 8.71 0 4.42 0 0 Z " fill="#292929" transform="translate(157,37)"/>
<path d="M0 0 C0.66 0 1.32 0 2 0 C2.06058594 0.84304687 2.12117187 1.68609375 2.18359375 2.5546875 C2.26738281 3.65039062 2.35117188 4.74609375 2.4375 5.875 C2.51871094 6.96554688 2.59992188 8.05609375 2.68359375 9.1796875 C2.83001703 11.94728971 2.83001703 11.94728971 4 14 C2.02 14 0.04 14 -2 14 C-1.67 13.34 -1.34 12.68 -1 12 C-0.77141886 9.9625237 -0.58975722 7.91959697 -0.4375 5.875 C-0.35371094 4.77929688 -0.26992187 3.68359375 -0.18359375 2.5546875 C-0.12300781 1.71164063 -0.06242188 0.86859375 0 0 Z " fill="#1D1D1D" transform="translate(191,37)"/>
<path d="M0 0 C0.90105469 0.02707031 1.80210938 0.05414062 2.73046875 0.08203125 C3.76107422 0.13423828 3.76107422 0.13423828 4.8125 0.1875 C4.8125 2.4975 4.8125 4.8075 4.8125 7.1875 C4.07 6.3625 3.3275 5.5375 2.5625 4.6875 C-0.06137385 1.73905147 -0.06137385 1.73905147 -4.1875 2.1875 C-5.97719026 4.61422567 -5.97719026 4.61422567 -7.1875 7.1875 C-7.875 5.375 -7.875 5.375 -8.1875 3.1875 C-5.8519357 -0.09491469 -3.87785639 -0.15108531 0 0 Z " fill="#4E4E4E" transform="translate(82.1875,29.8125)"/>
<path d="M0 0 C0.33 0 0.66 0 1 0 C1 1.98 1 3.96 1 6 C-0.98 6.66 -2.96 7.32 -5 8 C-5.33 10.31 -5.66 12.62 -6 15 C-7.5625 13.75 -7.5625 13.75 -9 12 C-8.84545794 9.52732712 -8.18391306 8.25747829 -6.75 6.25 C-4.42230997 4.58736427 -2.79466486 4.77340555 0 5 C0 3.35 0 1.7 0 0 Z " fill="#656565" transform="translate(149,31)"/>
<path d="M0 0 C0.66 0 1.32 0 2 0 C3.4606285 2.64738916 4 3.89448334 4 7 C2.02 7 0.04 7 -2 7 C-1.125 2.25 -1.125 2.25 0 0 Z " fill="#E0E0E0" transform="translate(125,36)"/>
<path d="M0 0 C3.27275026 0 5.846632 0.29925156 9 1 C8.34 1.66 7.68 2.32 7 3 C5.35 3 3.7 3 2 3 C2 6.3 2 9.6 2 13 C1.67 13 1.34 13 1 13 C0.67 8.71 0.34 4.42 0 0 Z " fill="#767676" transform="translate(192,36)"/>
<path d="M0 0 C2.86724686 0.57344937 3.8614515 0.8614515 6 3 C6.125 5.625 6.125 5.625 6 8 C5.34 8 4.68 8 4 8 C3.67 7.01 3.34 6.02 3 5 C2.01 4.34 1.02 3.68 0 3 C0 2.01 0 1.02 0 0 Z " fill="#1C1C1C" transform="translate(82,40)"/>
<path d="M0 0 C1.33333333 2.66666667 2.66666667 5.33333333 4 8 C0.125 7.125 0.125 7.125 -1 6 C-1.125 3.5 -1.125 3.5 -1 1 C-0.67 0.67 -0.34 0.34 0 0 Z " fill="#151515" transform="translate(141,42)"/>
</svg>
